<mxfile host="app.diagrams.net" agent="Mozilla/5.0 (Windows NT 10.0; Win64; x64) AppleWebKit/537.36 (KHTML, like Gecko) Chrome/141.0.0.0 Safari/537.36" version="28.2.8">
  <diagram name="Página-1" id="oWkvDdaTfboNXTt6HXvx">
    <mxGraphModel dx="664" dy="669" grid="1" gridSize="10" guides="1" tooltips="1" connect="1" arrows="1" fold="1" page="1" pageScale="1" pageWidth="827" pageHeight="1169" math="0" shadow="0">
      <root>
        <mxCell id="0" />
        <mxCell id="1" parent="0" />
        <mxCell id="nCYRVnqM8s--QmvlYR8J-1" value="" style="ellipse;whiteSpace=wrap;html=1;aspect=fixed;fillColor=#000000;" vertex="1" parent="1">
          <mxGeometry x="210" y="20" width="20" height="20" as="geometry" />
        </mxCell>
        <mxCell id="nCYRVnqM8s--QmvlYR8J-2" value="Ввод а" style="rounded=1;whiteSpace=wrap;html=1;arcSize=48;" vertex="1" parent="1">
          <mxGeometry x="185" y="60" width="70" height="20" as="geometry" />
        </mxCell>
        <mxCell id="nCYRVnqM8s--QmvlYR8J-3" value="" style="rhombus;whiteSpace=wrap;html=1;" vertex="1" parent="1">
          <mxGeometry x="205" y="103" width="30" height="30" as="geometry" />
        </mxCell>
        <mxCell id="nCYRVnqM8s--QmvlYR8J-5" value="" style="ellipse;whiteSpace=wrap;html=1;aspect=fixed;fillColor=#000000;" vertex="1" parent="1">
          <mxGeometry x="305" y="683" width="20" height="20" as="geometry" />
        </mxCell>
        <mxCell id="nCYRVnqM8s--QmvlYR8J-6" value="a=x" style="rounded=1;whiteSpace=wrap;html=1;arcSize=50;" vertex="1" parent="1">
          <mxGeometry x="190" y="160" width="60" height="20" as="geometry" />
        </mxCell>
        <mxCell id="nCYRVnqM8s--QmvlYR8J-7" value="s=a" style="rounded=1;whiteSpace=wrap;html=1;arcSize=50;" vertex="1" parent="1">
          <mxGeometry x="190" y="200" width="60" height="20" as="geometry" />
        </mxCell>
        <mxCell id="nCYRVnqM8s--QmvlYR8J-8" value="k=1" style="rounded=1;whiteSpace=wrap;html=1;arcSize=50;" vertex="1" parent="1">
          <mxGeometry x="190" y="240" width="60" height="20" as="geometry" />
        </mxCell>
        <mxCell id="nCYRVnqM8s--QmvlYR8J-10" value="&lt;font style=&quot;font-size: 14px;&quot;&gt;[|a|&amp;gt;EPS]&lt;/font&gt;" style="text;html=1;whiteSpace=wrap;strokeColor=none;fillColor=none;align=center;verticalAlign=middle;rounded=0;fontSize=16;" vertex="1" parent="1">
          <mxGeometry x="230" y="360" width="60" height="19" as="geometry" />
        </mxCell>
        <mxCell id="nCYRVnqM8s--QmvlYR8J-12" value="a = a * x * k / (k + 1)²" style="rounded=1;whiteSpace=wrap;html=1;arcSize=50;" vertex="1" parent="1">
          <mxGeometry x="147" y="391" width="145" height="30" as="geometry" />
        </mxCell>
        <mxCell id="nCYRVnqM8s--QmvlYR8J-13" value="S = S + a" style="rounded=1;whiteSpace=wrap;html=1;arcSize=50;" vertex="1" parent="1">
          <mxGeometry x="185" y="444" width="80" height="20" as="geometry" />
        </mxCell>
        <mxCell id="nCYRVnqM8s--QmvlYR8J-14" value="k = k + 1" style="rounded=1;whiteSpace=wrap;html=1;arcSize=50;" vertex="1" parent="1">
          <mxGeometry x="185" y="484" width="80" height="20" as="geometry" />
        </mxCell>
        <mxCell id="nCYRVnqM8s--QmvlYR8J-15" value="" style="rhombus;whiteSpace=wrap;html=1;" vertex="1" parent="1">
          <mxGeometry x="205" y="280" width="30" height="30" as="geometry" />
        </mxCell>
        <mxCell id="nCYRVnqM8s--QmvlYR8J-17" value="Ei(x)= Euler + ln(|x| + S" style="rounded=1;whiteSpace=wrap;html=1;arcSize=50;" vertex="1" parent="1">
          <mxGeometry x="253" y="560" width="140" height="30" as="geometry" />
        </mxCell>
        <mxCell id="nCYRVnqM8s--QmvlYR8J-18" value="Вывод Ei(x)" style="rounded=1;whiteSpace=wrap;html=1;arcSize=50;" vertex="1" parent="1">
          <mxGeometry x="270" y="611" width="90" height="30" as="geometry" />
        </mxCell>
        <mxCell id="nCYRVnqM8s--QmvlYR8J-24" value="" style="endArrow=classic;html=1;rounded=0;fontSize=12;startSize=8;endSize=8;curved=1;entryX=0.5;entryY=0;entryDx=0;entryDy=0;" edge="1" parent="1" target="nCYRVnqM8s--QmvlYR8J-13">
          <mxGeometry width="50" height="50" relative="1" as="geometry">
            <mxPoint x="225" y="421" as="sourcePoint" />
            <mxPoint x="555" y="451" as="targetPoint" />
          </mxGeometry>
        </mxCell>
        <mxCell id="nCYRVnqM8s--QmvlYR8J-25" value="" style="endArrow=classic;html=1;rounded=0;fontSize=12;startSize=8;endSize=8;curved=1;exitX=0.5;exitY=1;exitDx=0;exitDy=0;entryX=0.5;entryY=0;entryDx=0;entryDy=0;" edge="1" parent="1" source="nCYRVnqM8s--QmvlYR8J-13" target="nCYRVnqM8s--QmvlYR8J-14">
          <mxGeometry width="50" height="50" relative="1" as="geometry">
            <mxPoint x="505" y="501" as="sourcePoint" />
            <mxPoint x="555" y="451" as="targetPoint" />
          </mxGeometry>
        </mxCell>
        <mxCell id="nCYRVnqM8s--QmvlYR8J-26" value="" style="endArrow=classic;html=1;rounded=0;fontSize=12;startSize=8;endSize=8;curved=1;exitX=0.5;exitY=1;exitDx=0;exitDy=0;entryX=0.5;entryY=0;entryDx=0;entryDy=0;" edge="1" parent="1" source="nCYRVnqM8s--QmvlYR8J-8" target="nCYRVnqM8s--QmvlYR8J-15">
          <mxGeometry width="50" height="50" relative="1" as="geometry">
            <mxPoint x="420" y="370" as="sourcePoint" />
            <mxPoint x="470" y="320" as="targetPoint" />
          </mxGeometry>
        </mxCell>
        <mxCell id="nCYRVnqM8s--QmvlYR8J-27" value="" style="endArrow=classic;html=1;rounded=0;fontSize=12;startSize=8;endSize=8;curved=1;exitX=0.5;exitY=1;exitDx=0;exitDy=0;entryX=0.5;entryY=0;entryDx=0;entryDy=0;" edge="1" parent="1" source="nCYRVnqM8s--QmvlYR8J-7" target="nCYRVnqM8s--QmvlYR8J-8">
          <mxGeometry width="50" height="50" relative="1" as="geometry">
            <mxPoint x="420" y="370" as="sourcePoint" />
            <mxPoint x="470" y="320" as="targetPoint" />
          </mxGeometry>
        </mxCell>
        <mxCell id="nCYRVnqM8s--QmvlYR8J-28" value="" style="endArrow=classic;html=1;rounded=0;fontSize=12;startSize=8;endSize=8;curved=1;exitX=0.5;exitY=1;exitDx=0;exitDy=0;" edge="1" parent="1" source="nCYRVnqM8s--QmvlYR8J-6" target="nCYRVnqM8s--QmvlYR8J-7">
          <mxGeometry width="50" height="50" relative="1" as="geometry">
            <mxPoint x="420" y="270" as="sourcePoint" />
            <mxPoint x="470" y="220" as="targetPoint" />
          </mxGeometry>
        </mxCell>
        <mxCell id="nCYRVnqM8s--QmvlYR8J-29" value="" style="endArrow=classic;html=1;rounded=0;fontSize=12;startSize=8;endSize=8;curved=1;exitX=0.5;exitY=1;exitDx=0;exitDy=0;" edge="1" parent="1" source="nCYRVnqM8s--QmvlYR8J-3" target="nCYRVnqM8s--QmvlYR8J-6">
          <mxGeometry width="50" height="50" relative="1" as="geometry">
            <mxPoint x="420" y="270" as="sourcePoint" />
            <mxPoint x="470" y="220" as="targetPoint" />
          </mxGeometry>
        </mxCell>
        <mxCell id="nCYRVnqM8s--QmvlYR8J-30" value="" style="endArrow=classic;html=1;rounded=0;fontSize=12;startSize=8;endSize=8;curved=1;exitX=0.5;exitY=1;exitDx=0;exitDy=0;entryX=0.5;entryY=0;entryDx=0;entryDy=0;" edge="1" parent="1" source="nCYRVnqM8s--QmvlYR8J-2" target="nCYRVnqM8s--QmvlYR8J-3">
          <mxGeometry width="50" height="50" relative="1" as="geometry">
            <mxPoint x="420" y="170" as="sourcePoint" />
            <mxPoint x="470" y="120" as="targetPoint" />
          </mxGeometry>
        </mxCell>
        <mxCell id="nCYRVnqM8s--QmvlYR8J-31" value="" style="endArrow=classic;html=1;rounded=0;fontSize=12;startSize=8;endSize=8;curved=1;exitX=0.5;exitY=1;exitDx=0;exitDy=0;entryX=0.5;entryY=0;entryDx=0;entryDy=0;" edge="1" parent="1" source="nCYRVnqM8s--QmvlYR8J-1" target="nCYRVnqM8s--QmvlYR8J-2">
          <mxGeometry width="50" height="50" relative="1" as="geometry">
            <mxPoint x="420" y="170" as="sourcePoint" />
            <mxPoint x="470" y="120" as="targetPoint" />
          </mxGeometry>
        </mxCell>
        <mxCell id="nCYRVnqM8s--QmvlYR8J-34" value="" style="endArrow=classic;html=1;rounded=0;fontSize=12;startSize=8;endSize=8;curved=1;exitX=0.441;exitY=1.044;exitDx=0;exitDy=0;exitPerimeter=0;entryX=0.5;entryY=0;entryDx=0;entryDy=0;" edge="1" parent="1" source="nCYRVnqM8s--QmvlYR8J-17" target="nCYRVnqM8s--QmvlYR8J-18">
          <mxGeometry width="50" height="50" relative="1" as="geometry">
            <mxPoint x="514" y="620" as="sourcePoint" />
            <mxPoint x="564" y="570" as="targetPoint" />
          </mxGeometry>
        </mxCell>
        <mxCell id="nCYRVnqM8s--QmvlYR8J-35" value="" style="endArrow=classic;html=1;rounded=0;fontSize=12;startSize=8;endSize=8;curved=1;exitX=0.5;exitY=1;exitDx=0;exitDy=0;entryX=0.5;entryY=0;entryDx=0;entryDy=0;" edge="1" parent="1" source="nCYRVnqM8s--QmvlYR8J-18" target="nCYRVnqM8s--QmvlYR8J-5">
          <mxGeometry width="50" height="50" relative="1" as="geometry">
            <mxPoint x="514" y="620" as="sourcePoint" />
            <mxPoint x="564" y="570" as="targetPoint" />
          </mxGeometry>
        </mxCell>
        <mxCell id="nCYRVnqM8s--QmvlYR8J-36" value="&lt;font style=&quot;font-size: 13px;&quot;&gt;Да&lt;/font&gt;" style="text;html=1;whiteSpace=wrap;strokeColor=none;fillColor=none;align=center;verticalAlign=middle;rounded=0;fontSize=16;" vertex="1" parent="1">
          <mxGeometry x="265" y="320" width="60" height="30" as="geometry" />
        </mxCell>
        <mxCell id="nCYRVnqM8s--QmvlYR8J-39" value="&lt;font style=&quot;font-size: 14px;&quot;&gt;[x==0]&lt;/font&gt;" style="text;html=1;whiteSpace=wrap;strokeColor=none;fillColor=none;align=center;verticalAlign=middle;rounded=0;fontSize=16;" vertex="1" parent="1">
          <mxGeometry x="160" y="90" width="60" height="30" as="geometry" />
        </mxCell>
        <mxCell id="nCYRVnqM8s--QmvlYR8J-40" value="&lt;font style=&quot;font-size: 14px;&quot;&gt;Да&lt;/font&gt;" style="text;html=1;whiteSpace=wrap;strokeColor=none;fillColor=none;align=center;verticalAlign=middle;rounded=0;fontSize=16;" vertex="1" parent="1">
          <mxGeometry x="280" y="90" width="60" height="30" as="geometry" />
        </mxCell>
        <mxCell id="nCYRVnqM8s--QmvlYR8J-41" value="&lt;font style=&quot;font-size: 13px;&quot;&gt;Нет&lt;/font&gt;" style="text;html=1;whiteSpace=wrap;strokeColor=none;fillColor=none;align=center;verticalAlign=middle;rounded=0;fontSize=16;" vertex="1" parent="1">
          <mxGeometry x="210" y="120" width="60" height="30" as="geometry" />
        </mxCell>
        <mxCell id="nCYRVnqM8s--QmvlYR8J-42" value="&lt;pre style=&quot;font-variant-numeric: normal; font-variant-east-asian: normal; font-variant-alternates: normal; font-size-adjust: none; font-kerning: auto; font-optical-sizing: auto; font-feature-settings: normal; font-variation-settings: normal; font-variant-position: normal; font-variant-emoji: normal; font-stretch: normal; font-size: 13px; line-height: 22px; font-family: Menlo, Monaco, Consolas, &amp;quot;Cascadia Mono&amp;quot;, &amp;quot;Ubuntu Mono&amp;quot;, &amp;quot;DejaVu Sans Mono&amp;quot;, &amp;quot;Liberation Mono&amp;quot;, &amp;quot;JetBrains Mono&amp;quot;, &amp;quot;Fira Code&amp;quot;, Cousine, &amp;quot;Roboto Mono&amp;quot;, &amp;quot;Courier New&amp;quot;, Courier, sans-serif, system-ui; overflow: auto; text-wrap-mode: wrap; word-break: break-all; padding: 16px; color: rgb(15, 17, 21); text-align: start; margin: 0px !important;&quot;&gt;Ошибка&lt;/pre&gt;" style="rounded=1;whiteSpace=wrap;html=1;arcSize=50;" vertex="1" parent="1">
          <mxGeometry x="371" y="210" width="80" height="30" as="geometry" />
        </mxCell>
        <mxCell id="nCYRVnqM8s--QmvlYR8J-44" value="" style="endArrow=classic;html=1;rounded=0;fontSize=12;startSize=8;endSize=8;edgeStyle=orthogonalEdgeStyle;exitX=1;exitY=0.5;exitDx=0;exitDy=0;entryX=0.5;entryY=0;entryDx=0;entryDy=0;" edge="1" parent="1" source="nCYRVnqM8s--QmvlYR8J-3" target="nCYRVnqM8s--QmvlYR8J-42">
          <mxGeometry width="50" height="50" relative="1" as="geometry">
            <mxPoint x="540" y="370" as="sourcePoint" />
            <mxPoint x="590" y="320" as="targetPoint" />
          </mxGeometry>
        </mxCell>
        <mxCell id="nCYRVnqM8s--QmvlYR8J-46" value="" style="rhombus;whiteSpace=wrap;html=1;" vertex="1" parent="1">
          <mxGeometry x="205" y="333" width="30" height="30" as="geometry" />
        </mxCell>
        <mxCell id="nCYRVnqM8s--QmvlYR8J-47" value="" style="endArrow=classic;html=1;rounded=0;fontSize=12;startSize=8;endSize=8;edgeStyle=orthogonalEdgeStyle;exitX=0.5;exitY=1;exitDx=0;exitDy=0;entryX=0;entryY=0.5;entryDx=0;entryDy=0;" edge="1" parent="1" source="nCYRVnqM8s--QmvlYR8J-14" target="nCYRVnqM8s--QmvlYR8J-15">
          <mxGeometry width="50" height="50" relative="1" as="geometry">
            <mxPoint x="420" y="490" as="sourcePoint" />
            <mxPoint x="470" y="440" as="targetPoint" />
            <Array as="points">
              <mxPoint x="225" y="530" />
              <mxPoint x="130" y="530" />
              <mxPoint x="130" y="295" />
            </Array>
          </mxGeometry>
        </mxCell>
        <mxCell id="nCYRVnqM8s--QmvlYR8J-48" value="" style="endArrow=classic;html=1;rounded=0;fontSize=12;startSize=8;endSize=8;curved=1;exitX=0.5;exitY=1;exitDx=0;exitDy=0;" edge="1" parent="1" source="nCYRVnqM8s--QmvlYR8J-46" target="nCYRVnqM8s--QmvlYR8J-12">
          <mxGeometry width="50" height="50" relative="1" as="geometry">
            <mxPoint x="420" y="490" as="sourcePoint" />
            <mxPoint x="470" y="440" as="targetPoint" />
          </mxGeometry>
        </mxCell>
        <mxCell id="nCYRVnqM8s--QmvlYR8J-51" value="" style="endArrow=classic;html=1;rounded=0;fontSize=12;startSize=8;endSize=8;curved=1;exitX=0.5;exitY=1;exitDx=0;exitDy=0;entryX=0.5;entryY=0;entryDx=0;entryDy=0;" edge="1" parent="1" source="nCYRVnqM8s--QmvlYR8J-15" target="nCYRVnqM8s--QmvlYR8J-46">
          <mxGeometry width="50" height="50" relative="1" as="geometry">
            <mxPoint x="420" y="390" as="sourcePoint" />
            <mxPoint x="470" y="340" as="targetPoint" />
          </mxGeometry>
        </mxCell>
        <mxCell id="nCYRVnqM8s--QmvlYR8J-52" value="" style="endArrow=classic;html=1;rounded=0;fontSize=12;startSize=8;endSize=8;edgeStyle=orthogonalEdgeStyle;exitX=1;exitY=0.5;exitDx=0;exitDy=0;entryX=0.443;entryY=-0.067;entryDx=0;entryDy=0;entryPerimeter=0;" edge="1" parent="1" source="nCYRVnqM8s--QmvlYR8J-46" target="nCYRVnqM8s--QmvlYR8J-17">
          <mxGeometry width="50" height="50" relative="1" as="geometry">
            <mxPoint x="420" y="490" as="sourcePoint" />
            <mxPoint x="470" y="440" as="targetPoint" />
          </mxGeometry>
        </mxCell>
        <mxCell id="nCYRVnqM8s--QmvlYR8J-53" value="" style="endArrow=none;html=1;rounded=0;fontSize=12;startSize=8;endSize=8;edgeStyle=orthogonalEdgeStyle;" edge="1" parent="1">
          <mxGeometry width="50" height="50" relative="1" as="geometry">
            <mxPoint x="316" y="660" as="sourcePoint" />
            <mxPoint x="410" y="240" as="targetPoint" />
          </mxGeometry>
        </mxCell>
        <mxCell id="nCYRVnqM8s--QmvlYR8J-54" value="&lt;font style=&quot;font-size: 13px;&quot;&gt;Нет&lt;/font&gt;" style="text;html=1;whiteSpace=wrap;strokeColor=none;fillColor=none;align=center;verticalAlign=middle;rounded=0;fontSize=16;" vertex="1" parent="1">
          <mxGeometry x="170" y="360" width="60" height="30" as="geometry" />
        </mxCell>
      </root>
    </mxGraphModel>
  </diagram>
</mxfile>
